<mxfile host="app.diagrams.net" modified="2020-09-16T09:43:07.487Z" agent="5.0 (Windows)" etag="JUz15G148Uc8cHjxP1BQ" version="13.7.1" type="github">
  <diagram id="lcQtcWyNDoLm4r6tXk9v" name="Page-1">
    <mxGraphModel dx="1422" dy="755" grid="1" gridSize="10" guides="1" tooltips="1" connect="1" arrows="1" fold="1" page="1" pageScale="1" pageWidth="827" pageHeight="1169" math="0" shadow="0">
      <root>
        <mxCell id="0" />
        <mxCell id="1" parent="0" />
        <mxCell id="2oZy433ebvZI-6c4plQJ-2" value="Start Game!" style="rounded=1;whiteSpace=wrap;html=1;" vertex="1" parent="1">
          <mxGeometry x="170" y="40" width="120" height="60" as="geometry" />
        </mxCell>
        <mxCell id="2oZy433ebvZI-6c4plQJ-3" value="" style="endArrow=classic;html=1;exitX=0.5;exitY=1;exitDx=0;exitDy=0;" edge="1" parent="1" source="2oZy433ebvZI-6c4plQJ-2">
          <mxGeometry width="50" height="50" relative="1" as="geometry">
            <mxPoint x="210" y="430" as="sourcePoint" />
            <mxPoint x="230" y="160" as="targetPoint" />
          </mxGeometry>
        </mxCell>
        <mxCell id="2oZy433ebvZI-6c4plQJ-5" value="Computer generates random integer from 1 - N" style="rounded=0;whiteSpace=wrap;html=1;" vertex="1" parent="1">
          <mxGeometry x="170" y="160" width="120" height="60" as="geometry" />
        </mxCell>
        <mxCell id="2oZy433ebvZI-6c4plQJ-6" value="" style="endArrow=classic;html=1;exitX=0.5;exitY=1;exitDx=0;exitDy=0;" edge="1" parent="1" source="2oZy433ebvZI-6c4plQJ-5">
          <mxGeometry width="50" height="50" relative="1" as="geometry">
            <mxPoint x="210" y="430" as="sourcePoint" />
            <mxPoint x="230" y="290" as="targetPoint" />
          </mxGeometry>
        </mxCell>
        <mxCell id="2oZy433ebvZI-6c4plQJ-7" value="Guess a number" style="shape=parallelogram;perimeter=parallelogramPerimeter;whiteSpace=wrap;html=1;fixedSize=1;" vertex="1" parent="1">
          <mxGeometry x="170" y="290" width="120" height="60" as="geometry" />
        </mxCell>
        <mxCell id="2oZy433ebvZI-6c4plQJ-8" value="Insert a number" style="shape=parallelogram;perimeter=parallelogramPerimeter;whiteSpace=wrap;html=1;fixedSize=1;" vertex="1" parent="1">
          <mxGeometry x="170" y="400" width="120" height="60" as="geometry" />
        </mxCell>
        <mxCell id="2oZy433ebvZI-6c4plQJ-9" value="" style="endArrow=classic;html=1;entryX=0.5;entryY=0;entryDx=0;entryDy=0;exitX=0.5;exitY=1;exitDx=0;exitDy=0;" edge="1" parent="1" source="2oZy433ebvZI-6c4plQJ-7" target="2oZy433ebvZI-6c4plQJ-8">
          <mxGeometry width="50" height="50" relative="1" as="geometry">
            <mxPoint x="60" y="430" as="sourcePoint" />
            <mxPoint x="110" y="380" as="targetPoint" />
          </mxGeometry>
        </mxCell>
        <mxCell id="2oZy433ebvZI-6c4plQJ-10" value="" style="endArrow=classic;html=1;exitX=0.5;exitY=1;exitDx=0;exitDy=0;entryX=0.5;entryY=0;entryDx=0;entryDy=0;" edge="1" parent="1" source="2oZy433ebvZI-6c4plQJ-8" target="2oZy433ebvZI-6c4plQJ-11">
          <mxGeometry width="50" height="50" relative="1" as="geometry">
            <mxPoint x="60" y="550" as="sourcePoint" />
            <mxPoint x="110" y="500" as="targetPoint" />
          </mxGeometry>
        </mxCell>
        <mxCell id="2oZy433ebvZI-6c4plQJ-11" value="Is input number = random generated number" style="rhombus;whiteSpace=wrap;html=1;" vertex="1" parent="1">
          <mxGeometry x="135" y="520" width="190" height="160" as="geometry" />
        </mxCell>
        <mxCell id="2oZy433ebvZI-6c4plQJ-12" value="" style="endArrow=classic;html=1;exitX=1;exitY=0.5;exitDx=0;exitDy=0;" edge="1" parent="1" source="2oZy433ebvZI-6c4plQJ-11">
          <mxGeometry width="50" height="50" relative="1" as="geometry">
            <mxPoint x="540" y="580" as="sourcePoint" />
            <mxPoint x="440" y="600" as="targetPoint" />
          </mxGeometry>
        </mxCell>
        <mxCell id="2oZy433ebvZI-6c4plQJ-13" value="" style="endArrow=classic;html=1;exitX=0.5;exitY=1;exitDx=0;exitDy=0;" edge="1" parent="1" source="2oZy433ebvZI-6c4plQJ-11">
          <mxGeometry width="50" height="50" relative="1" as="geometry">
            <mxPoint x="540" y="880" as="sourcePoint" />
            <mxPoint x="230" y="760" as="targetPoint" />
          </mxGeometry>
        </mxCell>
        <mxCell id="2oZy433ebvZI-6c4plQJ-16" value="" style="edgeStyle=orthogonalEdgeStyle;rounded=0;orthogonalLoop=1;jettySize=auto;html=1;" edge="1" parent="1" source="2oZy433ebvZI-6c4plQJ-14">
          <mxGeometry relative="1" as="geometry">
            <mxPoint x="230" y="920" as="targetPoint" />
          </mxGeometry>
        </mxCell>
        <mxCell id="2oZy433ebvZI-6c4plQJ-14" value="You are correct - the random number is N" style="shape=parallelogram;perimeter=parallelogramPerimeter;whiteSpace=wrap;html=1;fixedSize=1;" vertex="1" parent="1">
          <mxGeometry x="155" y="760" width="150" height="80" as="geometry" />
        </mxCell>
        <mxCell id="2oZy433ebvZI-6c4plQJ-17" value="End Game" style="rounded=1;whiteSpace=wrap;html=1;" vertex="1" parent="1">
          <mxGeometry x="170" y="920" width="120" height="60" as="geometry" />
        </mxCell>
        <mxCell id="2oZy433ebvZI-6c4plQJ-18" value="True" style="text;html=1;strokeColor=none;fillColor=none;align=center;verticalAlign=middle;whiteSpace=wrap;rounded=0;" vertex="1" parent="1">
          <mxGeometry x="135" y="700" width="40" height="20" as="geometry" />
        </mxCell>
        <mxCell id="2oZy433ebvZI-6c4plQJ-19" value="False" style="text;html=1;align=center;verticalAlign=middle;resizable=0;points=[];autosize=1;" vertex="1" parent="1">
          <mxGeometry x="360" y="560" width="50" height="20" as="geometry" />
        </mxCell>
        <mxCell id="2oZy433ebvZI-6c4plQJ-22" value="" style="edgeStyle=orthogonalEdgeStyle;rounded=0;orthogonalLoop=1;jettySize=auto;html=1;" edge="1" parent="1" source="2oZy433ebvZI-6c4plQJ-20" target="2oZy433ebvZI-6c4plQJ-21">
          <mxGeometry relative="1" as="geometry" />
        </mxCell>
        <mxCell id="2oZy433ebvZI-6c4plQJ-20" value="Is input number &amp;lt; random generated number" style="rhombus;whiteSpace=wrap;html=1;" vertex="1" parent="1">
          <mxGeometry x="440" y="520" width="160" height="170" as="geometry" />
        </mxCell>
        <mxCell id="2oZy433ebvZI-6c4plQJ-21" value="My number is higher than 4, guess again higher!" style="shape=parallelogram;perimeter=parallelogramPerimeter;whiteSpace=wrap;html=1;fixedSize=1;" vertex="1" parent="1">
          <mxGeometry x="425" y="750" width="190" height="70" as="geometry" />
        </mxCell>
        <mxCell id="2oZy433ebvZI-6c4plQJ-23" value="True" style="text;html=1;align=center;verticalAlign=middle;resizable=0;points=[];autosize=1;" vertex="1" parent="1">
          <mxGeometry x="555" y="700" width="40" height="20" as="geometry" />
        </mxCell>
        <mxCell id="2oZy433ebvZI-6c4plQJ-24" value="" style="endArrow=classic;html=1;exitX=0.5;exitY=1;exitDx=0;exitDy=0;entryX=1;entryY=0.5;entryDx=0;entryDy=0;" edge="1" parent="1" source="2oZy433ebvZI-6c4plQJ-21" target="2oZy433ebvZI-6c4plQJ-8">
          <mxGeometry width="50" height="50" relative="1" as="geometry">
            <mxPoint x="540" y="700" as="sourcePoint" />
            <mxPoint x="280" y="320" as="targetPoint" />
            <Array as="points">
              <mxPoint x="520" y="870" />
              <mxPoint x="760" y="870" />
              <mxPoint x="760" y="320" />
              <mxPoint x="390" y="320" />
              <mxPoint x="390" y="430" />
            </Array>
          </mxGeometry>
        </mxCell>
        <mxCell id="2oZy433ebvZI-6c4plQJ-25" value="" style="endArrow=classic;html=1;exitX=0.5;exitY=0;exitDx=0;exitDy=0;" edge="1" parent="1" source="2oZy433ebvZI-6c4plQJ-20" target="2oZy433ebvZI-6c4plQJ-26">
          <mxGeometry width="50" height="50" relative="1" as="geometry">
            <mxPoint x="540" y="580" as="sourcePoint" />
            <mxPoint x="520" y="470" as="targetPoint" />
          </mxGeometry>
        </mxCell>
        <mxCell id="2oZy433ebvZI-6c4plQJ-26" value="My number is lower than 4, guess again lower!" style="shape=parallelogram;perimeter=parallelogramPerimeter;whiteSpace=wrap;html=1;fixedSize=1;" vertex="1" parent="1">
          <mxGeometry x="430" y="390" width="180" height="80" as="geometry" />
        </mxCell>
        <mxCell id="2oZy433ebvZI-6c4plQJ-27" value="" style="endArrow=classic;html=1;exitX=0.5;exitY=0;exitDx=0;exitDy=0;" edge="1" parent="1" source="2oZy433ebvZI-6c4plQJ-26">
          <mxGeometry width="50" height="50" relative="1" as="geometry">
            <mxPoint x="540" y="580" as="sourcePoint" />
            <mxPoint x="280" y="430" as="targetPoint" />
            <Array as="points">
              <mxPoint x="520" y="360" />
              <mxPoint x="390" y="360" />
              <mxPoint x="390" y="430" />
            </Array>
          </mxGeometry>
        </mxCell>
        <mxCell id="2oZy433ebvZI-6c4plQJ-28" value="False" style="text;html=1;align=center;verticalAlign=middle;resizable=0;points=[];autosize=1;" vertex="1" parent="1">
          <mxGeometry x="550" y="490" width="50" height="20" as="geometry" />
        </mxCell>
        <mxCell id="2oZy433ebvZI-6c4plQJ-30" value="Text" style="text;html=1;strokeColor=none;fillColor=none;align=center;verticalAlign=middle;whiteSpace=wrap;rounded=0;" vertex="1" parent="1">
          <mxGeometry x="550" y="290" width="40" height="20" as="geometry" />
        </mxCell>
        <mxCell id="2oZy433ebvZI-6c4plQJ-32" value="var highest range = 100&lt;br&gt;var lowest rannge = 1&lt;br&gt;var final result = 0&lt;br&gt;var ans = 35&lt;br&gt;&lt;br&gt;algo (int) : hr + lr -1 /2&amp;nbsp; = final result&lt;br&gt;&lt;br&gt;while (ans != fr) [&lt;br&gt;if (ans = final result) {&lt;br&gt;output &quot;gewonnen&quot;&lt;br&gt;break&lt;br&gt;} else if ( ans &amp;lt; fr) {&lt;br&gt;&amp;nbsp;hr = fr -1 &lt;br&gt;&amp;nbsp;run algo &lt;br&gt;output &quot;too high&quot;&lt;br&gt;} else {&lt;br&gt;lr = fr + 1&lt;br&gt;output &quot;too low&quot;&lt;br&gt;}]" style="text;html=1;strokeColor=none;fillColor=none;spacing=5;spacingTop=-20;whiteSpace=wrap;overflow=hidden;rounded=0;" vertex="1" parent="1">
          <mxGeometry x="390" y="20" width="205" height="290" as="geometry" />
        </mxCell>
      </root>
    </mxGraphModel>
  </diagram>
</mxfile>
